<svg width="40" height="40" viewBox="0 0 40 40" fill="none" xmlns="http://www.w3.org/2000/svg">
<path d="M29.3955 20.8776C29.3261 20.8934 29.2541 20.8942 29.1844 20.88C29.1147 20.8657 29.0488 20.8368 28.9912 20.795C28.3576 20.336 27.6334 20.0173 26.867 19.8603C26.1005 19.7032 25.3094 19.7114 24.5463 19.8843C23.4054 20.1433 22.3562 20.7752 21.5938 21.663C21.551 21.7127 21.4989 21.7536 21.4403 21.7832C21.3818 21.8128 21.3179 21.8306 21.2525 21.8356C21.1871 21.8405 21.1213 21.8325 21.0589 21.8121C20.9966 21.7916 20.9389 21.7591 20.8891 21.7163C20.8393 21.6735 20.7985 21.6214 20.7689 21.5628C20.7393 21.5042 20.7215 21.4404 20.7165 21.375C20.7116 21.3095 20.7196 21.2438 20.74 21.1814C20.7605 21.1191 20.793 21.0614 20.8358 21.0116C21.7462 19.9577 22.9688 19.2215 24.3262 18.9099C26.1498 18.496 28.064 18.888 29.5794 19.9847C29.657 20.0414 29.7166 20.1192 29.7512 20.2089C29.7858 20.2985 29.7938 20.3962 29.7745 20.4903C29.7551 20.5844 29.709 20.6709 29.6419 20.7396C29.5747 20.8083 29.4891 20.8562 29.3955 20.8776Z" fill="#F04C4D"/>
<path d="M17.0927 19.1356C17.0101 19.1543 16.9241 19.1518 16.8428 19.1282C16.7614 19.1046 16.6874 19.0607 16.6276 19.0007C16.5679 18.9407 16.5244 18.8664 16.5012 18.785C16.4779 18.7035 16.4758 18.6175 16.495 18.535C16.6833 17.7248 16.686 16.8825 16.5028 16.0711C16.2894 15.131 15.83 14.2591 15.1763 13.5523C15.1312 13.5042 15.0961 13.4476 15.0729 13.3859C15.0497 13.3241 15.039 13.2584 15.0413 13.1925C15.0436 13.1266 15.059 13.0619 15.0864 13.0019C15.1139 12.942 15.1529 12.888 15.2013 12.8432C15.2497 12.7985 15.3065 12.7637 15.3684 12.7409C15.4303 12.7181 15.4961 12.7079 15.5619 12.7106C15.6278 12.7134 15.6925 12.7291 15.7523 12.757C15.812 12.7849 15.8657 12.8243 15.9102 12.873C16.631 13.6526 17.1502 14.5969 17.4223 15.6233C17.6944 16.6497 17.7112 17.7271 17.4713 18.7615C17.4495 18.853 17.4025 18.9366 17.3355 19.0027C17.2686 19.0688 17.1845 19.1148 17.0927 19.1356Z" fill="#499ED7"/>
<path d="M11.2473 32.1401L14.7869 18.7986C14.8272 18.647 14.9025 18.507 15.0068 18.3899C15.1112 18.2727 15.2416 18.1818 15.3876 18.1244C15.5336 18.067 15.6911 18.0448 15.8472 18.0595C16.0034 18.0742 16.1539 18.1254 16.2866 18.209L22.4452 22.0891C22.578 22.1727 22.6892 22.2863 22.7699 22.4209C22.8505 22.5554 22.8985 22.707 22.9097 22.8635C22.921 23.0199 22.8953 23.1768 22.8347 23.3215C22.7741 23.4662 22.6803 23.5946 22.5609 23.6964L12.0549 32.6489C11.9738 32.7181 11.8727 32.7595 11.7664 32.7672C11.6601 32.7748 11.5541 32.7483 11.464 32.6915C11.3738 32.6347 11.3041 32.5506 11.2651 32.4514C11.2262 32.3522 11.2199 32.2431 11.2473 32.1401Z" fill="#FFCC5C"/>
<path d="M22.4452 22.0891L16.2866 18.209C16.1539 18.1254 16.0034 18.0742 15.8472 18.0595C15.691 18.0448 15.5336 18.067 15.3876 18.1244C15.2416 18.1818 15.1112 18.2727 15.0068 18.3898C14.9025 18.507 14.8271 18.647 14.7869 18.7986L14.7562 18.9163L16.9973 20.3283C17.3955 20.5791 17.7291 20.92 17.9712 21.3236C18.2132 21.7272 18.3569 22.182 18.3907 22.6514C18.4245 23.1208 18.3474 23.5915 18.1656 24.0256C17.9838 24.4597 17.7024 24.8449 17.3442 25.1501L11.864 29.82L11.2482 32.1398C11.2208 32.2429 11.2271 32.3519 11.2661 32.4511C11.3051 32.5503 11.3747 32.6345 11.4649 32.6913C11.5551 32.7481 11.6611 32.7746 11.7674 32.7669C11.8737 32.7593 11.9748 32.7178 12.0559 32.6487L22.5618 23.6961C22.6811 23.5943 22.7748 23.4659 22.8353 23.3211C22.8958 23.1764 22.9214 23.0195 22.91 22.8631C22.8987 22.7067 22.8507 22.5551 22.77 22.4206C22.6892 22.2862 22.578 22.1726 22.4452 22.0891Z" fill="#F7B546"/>
<path d="M14.1488 30.8641L15.2255 29.947L11.8993 29.6817L11.6392 30.6637L14.1488 30.8641ZM12.3314 28.0527L17.0101 28.4263L18.0869 27.5092L12.5925 27.0705L12.3314 28.0527ZM13.0236 25.4417L19.8705 25.9887L20.9472 25.0716L13.2847 24.4595L13.0236 25.4417ZM13.717 22.8314L22.6704 23.5463C22.7823 23.4098 22.8549 23.2453 22.8804 23.0706C22.906 22.8959 22.8835 22.7175 22.8155 22.5546L13.9781 21.8493L13.717 22.8314ZM14.4095 20.2214L20.2161 20.6846L18.3927 19.5367L14.6696 19.2395L14.4095 20.2214Z" fill="#F47423"/>
<path d="M22.8145 22.5549L18.305 22.1951C18.3812 22.5265 18.4049 22.8657 18.3677 23.2033L22.6704 23.5464C22.7821 23.4062 22.8486 23.2475 22.8762 23.0844L22.8821 23.0471C22.9019 22.88 22.8786 22.7105 22.8145 22.5549ZM18.0869 27.5092L14.8754 27.2527L13.7987 28.1698L17.0101 28.4263L17.261 28.2125L18.0869 27.5092ZM16.9964 20.3285C17.0478 20.3609 17.0842 20.4039 17.1322 20.4392L20.2153 20.6859L18.3918 19.537L15.3537 19.2945L16.9964 20.3285ZM11.6392 30.6637L14.1488 30.8642L15.2255 29.9471L12.0141 29.6906L11.863 29.8202L11.6392 30.6637ZM17.3433 25.1503L16.6603 25.733L19.8717 25.9895L20.9484 25.0724L17.6588 24.81C17.5568 24.9255 17.4644 25.047 17.3433 25.1503Z" fill="#ED5D25"/>
<path d="M11.4712 18.7514C11.1891 18.8143 10.8947 18.7945 10.6235 18.6943C10.3523 18.5941 10.1158 18.4178 9.94241 18.1865C9.76897 17.9552 9.66597 17.6787 9.64578 17.3903C9.62558 17.1019 9.68905 16.8139 9.82855 16.5606C9.52673 16.3478 9.31446 16.0306 9.2327 15.6704C9.15095 15.3103 9.20551 14.9326 9.38585 14.6102C9.1507 14.4421 8.96908 14.2096 8.86279 13.9407C8.7565 13.6719 8.73006 13.3781 8.78664 13.0946C8.84322 12.811 8.98042 12.5499 9.18178 12.3424C9.38313 12.135 9.64008 11.99 9.92177 11.925C10.0511 11.8957 10.1868 11.9189 10.299 11.9896C10.4112 12.0603 10.4907 12.1726 10.52 12.3019C10.5494 12.4313 10.5262 12.5669 10.4555 12.6791C10.3848 12.7913 10.2724 12.8709 10.1431 12.9002C10.0138 12.9296 9.90144 13.0091 9.83075 13.1213C9.76007 13.2335 9.73685 13.3692 9.7662 13.4985C9.79555 13.6278 9.87507 13.7402 9.98727 13.8108C10.0995 13.8815 10.2352 13.9048 10.3645 13.8754C10.4938 13.846 10.6295 13.8693 10.7417 13.94C10.8539 14.0106 10.9334 14.123 10.9627 14.2523C10.9921 14.3816 10.9689 14.5173 10.8982 14.6295C10.8275 14.7417 10.7151 14.8212 10.5858 14.8506C10.4565 14.8799 10.3441 14.9595 10.2735 15.0717C10.2028 15.1839 10.1795 15.3195 10.2089 15.4489C10.2383 15.5782 10.3178 15.6905 10.43 15.7612C10.5422 15.8319 10.6779 15.8551 10.8072 15.8258C10.9365 15.7964 11.0722 15.8197 11.1844 15.8903C11.2966 15.961 11.3761 16.0734 11.4054 16.2027C11.4348 16.332 11.4116 16.4677 11.3409 16.5799C11.2702 16.6921 11.1578 16.7716 11.0285 16.801C10.8992 16.8303 10.7868 16.9099 10.7162 17.0221C10.6455 17.1343 10.6222 17.2699 10.6516 17.3993C10.681 17.5286 10.7605 17.6409 10.8727 17.7116C10.9849 17.7823 11.1206 17.8055 11.2499 17.7762C11.3792 17.7468 11.5149 17.77 11.6271 17.8407C11.7393 17.9114 11.8188 18.0238 11.8481 18.1531C11.8775 18.2824 11.8543 18.4181 11.7836 18.5303C11.7129 18.6425 11.6005 18.722 11.4712 18.7514Z" fill="#92CA62"/>
<path d="M10.6165 14.8365C10.7093 14.8092 10.792 14.7552 10.8543 14.6813C10.9167 14.6073 10.9559 14.5166 10.9671 14.4206C10.8745 14.4482 10.792 14.5023 10.7297 14.5762C10.6674 14.6501 10.628 14.7405 10.6165 14.8365ZM10.5244 12.4702C10.4318 12.4978 10.3493 12.5519 10.287 12.6258C10.2247 12.6997 10.1853 12.7901 10.1738 12.8861C10.2666 12.8588 10.3493 12.8048 10.4116 12.7309C10.474 12.6569 10.5132 12.5662 10.5244 12.4702ZM10.0883 17.1764C10.0033 16.802 10.0672 16.4285 10.2404 16.1165C9.93862 15.9036 9.72635 15.5865 9.6446 15.2263C9.56284 14.8661 9.6174 14.4884 9.79775 14.1661C9.48789 13.9469 9.27304 13.6181 9.19684 13.2463C9.12064 12.8745 9.18879 12.4876 9.38746 12.1642C9.19232 12.3029 9.03317 12.4862 8.92329 12.6989C8.81342 12.9116 8.75601 13.1474 8.75585 13.3868C8.75569 13.6262 8.81279 13.8622 8.92239 14.075C9.03198 14.2878 9.19089 14.4714 9.38585 14.6103C9.20528 14.9325 9.15059 15.3103 9.23236 15.6705C9.31413 16.0308 9.52655 16.3479 9.82855 16.5607C9.68905 16.8139 9.62558 17.102 9.64578 17.3904C9.66597 17.6788 9.76897 17.9552 9.9424 18.1865C10.1158 18.4178 10.3523 18.5941 10.6235 18.6943C10.8947 18.7945 11.1891 18.8144 11.4712 18.7514C11.5731 18.7277 11.6648 18.6723 11.7333 18.5932C11.8017 18.5141 11.8434 18.4154 11.8522 18.3111C11.4682 18.39 11.0686 18.3154 10.739 18.1033C10.4093 17.8912 10.1757 17.5585 10.0883 17.1764Z" fill="#71BC58"/>
<path d="M11.0591 16.7868C11.1517 16.7594 11.2342 16.7054 11.2964 16.6315C11.3586 16.5576 11.3976 16.4671 11.4088 16.3711C11.3163 16.3988 11.234 16.4529 11.1719 16.5267C11.1097 16.6006 11.0706 16.691 11.0591 16.7868Z" fill="#71BC58"/>
<path d="M25.097 16.7445C24.7225 16.8295 24.3157 16.7721 23.9654 16.5522C23.853 16.4816 23.7734 16.3692 23.7439 16.2399C23.7145 16.1105 23.7376 15.9747 23.8083 15.8624C23.8789 15.7501 23.9913 15.6704 24.1206 15.641C24.25 15.6115 24.3858 15.6347 24.4981 15.7053C24.5537 15.7403 24.6157 15.764 24.6804 15.775C24.7452 15.786 24.8115 15.7842 24.8756 15.7696C24.9396 15.755 25.0002 15.728 25.0538 15.69C25.1074 15.652 25.153 15.6038 25.1879 15.5482C25.2229 15.4926 25.2466 15.4306 25.2576 15.3659C25.2687 15.3011 25.2668 15.2348 25.2523 15.1708C25.2377 15.1067 25.2106 15.0461 25.1726 14.9925C25.1346 14.9389 25.0865 14.8934 25.0308 14.8584C24.975 14.8236 24.9265 14.778 24.8883 14.7244C24.8502 14.6707 24.823 14.6101 24.8084 14.5459C24.7938 14.4816 24.7921 14.4152 24.8034 14.3503C24.8147 14.2854 24.8387 14.2235 24.8741 14.1679C24.9448 14.0558 25.0572 13.9763 25.1865 13.9469C25.3157 13.9176 25.4514 13.9408 25.5636 14.0114C25.6757 14.0794 25.81 14.1006 25.9376 14.0704C26.0652 14.0403 26.1759 13.9613 26.2458 13.8504C26.3157 13.7394 26.3392 13.6055 26.3113 13.4774C26.2834 13.3493 26.2063 13.2373 26.0966 13.1655C26.0407 13.1307 25.9922 13.0851 25.9541 13.0315C25.9159 12.9779 25.8887 12.9172 25.8741 12.853C25.8596 12.7888 25.8579 12.7223 25.8691 12.6574C25.8804 12.5926 25.9045 12.5306 25.9398 12.475C26.0105 12.3629 26.1229 12.2834 26.2522 12.254C26.3815 12.2247 26.5171 12.2479 26.6293 12.3186C26.7424 12.3856 26.877 12.4068 27.0052 12.3777C27.1335 12.3486 27.2457 12.2714 27.3188 12.1621C27.354 12.1065 27.3778 12.0446 27.3888 11.9797C27.3998 11.9149 27.3977 11.8485 27.3828 11.7845C27.3685 11.7205 27.3417 11.66 27.3038 11.6064C27.266 11.5529 27.2179 11.5074 27.1623 11.4726C27.1067 11.4376 27.0585 11.392 27.0205 11.3384C26.9825 11.2848 26.9554 11.2243 26.9409 11.1602C26.9263 11.0962 26.9244 11.0298 26.9355 10.9651C26.9465 10.9003 26.9702 10.8384 27.0052 10.7828C27.0402 10.7271 27.0858 10.679 27.1394 10.641C27.193 10.603 27.2535 10.5759 27.3176 10.5613C27.3816 10.5468 27.4479 10.5449 27.5127 10.556C27.5775 10.567 27.6394 10.5907 27.695 10.6257C28.0336 10.839 28.2692 11.1721 28.358 11.5632C28.4432 11.9372 28.3818 12.3296 28.1864 12.6597C27.9911 12.9898 27.6766 13.2324 27.3077 13.3377C27.3704 13.7018 27.2961 14.0762 27.0991 14.3888C26.9022 14.7014 26.5965 14.9301 26.241 15.0308C26.3003 15.3824 26.2366 15.7568 26.0313 16.0812C25.8146 16.4319 25.4715 16.6595 25.097 16.7445Z" fill="#AE89BE"/>
<path d="M25.0357 14.1344C25.1331 14.1944 25.2483 14.2188 25.3617 14.2034C25.4751 14.1879 25.5796 14.1336 25.6574 14.0497C25.6271 14.0381 25.5942 14.0332 25.5652 14.0142C25.4678 13.9541 25.3526 13.9297 25.2392 13.9452C25.1259 13.9606 25.0213 14.015 24.9436 14.0989C24.9739 14.1105 25.007 14.1163 25.0357 14.1344ZM26.1017 12.4425C26.1999 12.5 26.3146 12.5227 26.4273 12.507C26.54 12.4913 26.6442 12.438 26.7229 12.3558C26.6916 12.3444 26.6599 12.3404 26.6312 12.3223C26.5338 12.2622 26.4186 12.2378 26.3052 12.2533C26.1918 12.2687 26.0873 12.323 26.0095 12.407C26.0398 12.4186 26.0729 12.4244 26.1017 12.4425ZM23.9698 15.8263C24.0672 15.8864 24.1824 15.9107 24.2958 15.8953C24.4092 15.8798 24.5137 15.8255 24.5914 15.7416C24.5611 15.73 24.5282 15.7252 24.4993 15.7061C24.4018 15.6464 24.2866 15.6223 24.1733 15.6379C24.06 15.6535 23.9556 15.7079 23.8779 15.7918C23.9082 15.8034 23.9411 15.8082 23.9698 15.8263Z" fill="#9676B5"/>
<path d="M27.6969 10.6293C27.5993 10.5696 27.4841 10.5455 27.3709 10.5611C27.2576 10.5768 27.1532 10.6311 27.0754 10.715C27.1057 10.7266 27.1386 10.7314 27.1674 10.7495C27.506 10.9628 27.7416 11.296 27.8303 11.687C27.9155 12.061 27.8541 12.4534 27.6588 12.7835C27.4634 13.1136 27.1489 13.3563 26.78 13.4615C26.8427 13.8256 26.7684 14.2001 26.5715 14.5127C26.3745 14.8253 26.0688 15.0539 25.7134 15.1546C25.7727 15.5062 25.7089 15.8806 25.5037 16.2051C25.3363 16.4707 25.0886 16.6398 24.8195 16.7552C24.912 16.7516 25.0058 16.7673 25.0955 16.7469C25.4697 16.6628 25.7974 16.4382 26.0109 16.1196C26.2244 15.801 26.3074 15.4125 26.2429 15.0344C26.5981 14.9334 26.9035 14.7046 27.1004 14.3921C27.2973 14.0796 27.3718 13.7054 27.3096 13.3413C27.6786 13.2363 27.9932 12.9937 28.1886 12.6635C28.384 12.3334 28.4453 11.9408 28.3598 11.5668C28.317 11.3744 28.2363 11.1924 28.1225 11.0315C28.0087 10.8706 27.864 10.7338 27.6969 10.6293Z" fill="#9676B5"/>
<path d="M22.3121 29.5804C22.2275 29.5995 22.1393 29.5964 22.0563 29.5712C21.9733 29.546 21.8982 29.4996 21.8386 29.4366C21.6385 29.2268 21.5036 28.9633 21.4503 28.6783C21.3969 28.3933 21.4275 28.0989 21.5382 27.8309C21.6489 27.5629 21.835 27.3328 22.0739 27.1685C22.3129 27.0042 22.5943 26.9128 22.8842 26.9054C22.9133 26.5501 23.0683 26.2032 23.347 25.94C23.6245 25.676 23.9753 25.541 24.3358 25.53C24.3649 25.1614 24.5276 24.8209 24.7986 24.5646C24.9411 24.4283 25.1094 24.3218 25.2936 24.2513C25.4778 24.1808 25.6742 24.1477 25.8713 24.1539C26.2716 24.1646 26.6447 24.3311 26.9198 24.6214C26.9649 24.6692 27.0003 24.7254 27.0237 24.7869C27.0472 24.8483 27.0583 24.9138 27.0565 24.9795C27.0547 25.0453 27.0399 25.11 27.013 25.17C26.9862 25.23 26.9478 25.2842 26.9 25.3294C26.8522 25.3746 26.796 25.4099 26.7345 25.4334C26.6731 25.4568 26.6076 25.468 26.5419 25.4661C26.4762 25.4643 26.4114 25.4495 26.3514 25.4227C26.2914 25.3958 26.2372 25.3574 26.192 25.3096C26.1243 25.237 26.0365 25.1863 25.9398 25.164C25.8431 25.1417 25.742 25.1488 25.6493 25.1844C25.5567 25.2199 25.4768 25.2824 25.4199 25.3637C25.363 25.445 25.3316 25.5414 25.3299 25.6406C25.3281 25.7062 25.3392 25.7715 25.3628 25.8326C25.3864 25.8938 25.4219 25.9497 25.4672 25.9971C25.5457 26.0953 25.5845 26.2194 25.5759 26.3449C25.5672 26.4703 25.5118 26.588 25.4206 26.6746C25.3294 26.7611 25.2091 26.8103 25.0833 26.8124C24.9576 26.8145 24.8357 26.7693 24.7417 26.6858C24.6501 26.5898 24.5243 26.5339 24.3917 26.5304C24.2591 26.5268 24.1305 26.5759 24.034 26.667C23.9379 26.7585 23.8821 26.8843 23.8785 27.0169C23.875 27.1496 23.9241 27.2782 24.0151 27.3747C24.1064 27.4712 24.1556 27.6 24.1519 27.7328C24.1482 27.8655 24.0919 27.9914 23.9954 28.0826C23.8988 28.1739 23.77 28.2231 23.6373 28.2193C23.5045 28.2156 23.3787 28.1593 23.2874 28.0628C23.2426 28.0148 23.1886 27.9763 23.1287 27.9496C23.0687 27.9229 23.004 27.9085 22.9383 27.9072C22.8396 27.9049 22.7425 27.9317 22.6591 27.9845C22.5756 28.0372 22.5097 28.1134 22.4695 28.2036C22.4293 28.2937 22.4167 28.3937 22.4333 28.491C22.4499 28.5883 22.4949 28.6786 22.5626 28.7503C22.6232 28.8142 22.6659 28.8929 22.6863 28.9786C22.7066 29.0643 22.7039 29.1538 22.6785 29.2381C22.653 29.3224 22.6058 29.3985 22.5414 29.4586C22.4771 29.5187 22.398 29.5607 22.3121 29.5804Z" fill="#499ED7"/>
<path d="M22.3898 29.3125C22.2539 29.1697 22.1475 29.0015 22.0768 28.8176C22.0061 28.6336 21.9723 28.4375 21.9775 28.2404C21.9827 28.0434 22.0267 27.8493 22.1071 27.6693C22.1874 27.4893 22.3025 27.327 22.4457 27.1915C22.5738 27.0692 22.7228 26.9758 22.8815 26.907C22.513 26.9156 22.161 27.0617 21.8947 27.3166C21.7513 27.4518 21.6362 27.614 21.5559 27.794C21.4757 27.974 21.4319 28.1681 21.4272 28.3651C21.4214 28.5622 21.4548 28.7585 21.5255 28.9426C21.5961 29.1267 21.7026 29.295 21.8388 29.4376C21.9303 29.5333 22.0559 29.5891 22.1882 29.5926C22.3206 29.5962 22.449 29.5473 22.5455 29.4566C22.5567 29.4469 22.5596 29.4329 22.5696 29.4225C22.5027 29.3986 22.4415 29.3612 22.3898 29.3125ZM23.8401 27.9364C23.7953 27.8884 23.7414 27.8499 23.6814 27.8231C23.6214 27.7964 23.5567 27.782 23.491 27.7808C23.4253 27.7787 23.3598 27.7899 23.2985 27.8135C23.2371 27.8371 23.181 27.8727 23.1336 27.9183C23.1252 27.9264 23.1216 27.9374 23.1141 27.9453C23.1785 27.9717 23.2393 28.0091 23.2882 28.0616C23.3796 28.1579 23.5055 28.2139 23.6381 28.2175C23.7708 28.221 23.8995 28.1717 23.9959 28.0805C24.0043 28.0724 24.0048 28.061 24.0132 28.0529C23.9479 28.0268 23.8889 27.987 23.8401 27.9364ZM23.4364 26.7811C23.4655 26.4258 23.6205 26.0789 23.8992 25.8157C24.1766 25.5517 24.5275 25.4167 24.888 25.4056C24.9091 25.1369 25.0031 24.879 25.1598 24.6597C25.3165 24.4404 25.5301 24.2679 25.7775 24.1609C25.4104 24.1703 25.0599 24.3157 24.7937 24.5687C24.5276 24.8218 24.3649 25.1645 24.337 25.5307C23.9678 25.5395 23.6153 25.6857 23.3482 25.9407C23.0698 26.2049 22.9153 26.5497 22.8862 26.9049C23.0579 26.8301 23.2425 26.7851 23.4364 26.7811ZM25.2936 26.5605C25.2021 26.4645 25.0763 26.4086 24.9437 26.4051C24.8111 26.4016 24.6824 26.4507 24.5859 26.5417C24.5775 26.5497 24.5739 26.5608 24.5666 26.5696C24.6311 26.596 24.6907 26.6328 24.7419 26.6868C24.8332 26.7828 24.959 26.8386 25.0914 26.842C25.2239 26.8454 25.3523 26.796 25.4484 26.7048C25.4569 26.6967 25.4573 26.6854 25.4648 26.6775C25.4002 26.6508 25.3419 26.611 25.2936 26.5605ZM26.7442 25.1853C26.6991 25.1375 26.6451 25.0991 26.5851 25.0723C26.5251 25.0455 26.4604 25.0309 26.3947 25.0292C26.3291 25.0275 26.2637 25.0389 26.2024 25.0626C26.1411 25.0862 26.0852 25.1218 26.0377 25.1672C26.0293 25.1753 26.0256 25.1864 26.0182 25.1942C26.0826 25.2206 26.1434 25.2581 26.1923 25.3106C26.2837 25.4068 26.4095 25.4629 26.5422 25.4664C26.6749 25.4699 26.8036 25.4207 26.9 25.3294C26.9084 25.3213 26.9111 25.3105 26.9195 25.3024C26.8533 25.2764 26.7935 25.2365 26.7442 25.1853Z" fill="#2B8EC6"/>
<path d="M16.8588 10.8631C17.3974 10.7409 17.7349 10.2052 17.6127 9.66659C17.4904 9.128 16.9547 8.7905 16.4161 8.91274C15.8775 9.03499 15.54 9.5707 15.6623 10.1093C15.7845 10.6479 16.3202 10.9854 16.8588 10.8631Z" fill="#AE89BE"/>
<path d="M24.6604 9.09238C25.1989 8.97013 25.5364 8.43442 25.4142 7.89584C25.292 7.35725 24.7562 7.01974 24.2177 7.14199C23.6791 7.26424 23.3416 7.79995 23.4638 8.33854C23.5861 8.87712 24.1218 9.21463 24.6604 9.09238Z" fill="#499ED7"/>
<path d="M30.7746 17.9589C31.3132 17.8366 31.6507 17.3009 31.5285 16.7624C31.4062 16.2238 30.8705 15.8863 30.3319 16.0085C29.7934 16.1308 29.4559 16.6665 29.5781 17.2051C29.7003 17.7436 30.2361 18.0811 30.7746 17.9589Z" fill="#FFCC5C"/>
<path d="M9.23055 26.9507C9.76913 26.8285 10.1066 26.2928 9.98439 25.7542C9.86214 25.2156 9.32643 24.8781 8.78785 25.0003C8.24926 25.1226 7.91175 25.6583 8.034 26.1969C8.15625 26.7355 8.69196 27.073 9.23055 26.9507Z" fill="#F04C4D"/>
<path d="M16.4161 8.91278C16.2908 8.94212 16.1723 8.99547 16.0672 9.0699C16.2631 9.10189 16.445 9.19162 16.5896 9.3276C16.7342 9.46358 16.8349 9.63962 16.8788 9.83319C16.9228 10.0268 16.9079 10.229 16.8362 10.4141C16.7645 10.5992 16.6392 10.7586 16.4763 10.8721C16.6032 10.8938 16.7331 10.8908 16.8588 10.8632C17.1175 10.8045 17.3422 10.6454 17.4835 10.421C17.6249 10.1966 17.6714 9.92526 17.6127 9.66663C17.554 9.40799 17.3949 9.18327 17.1705 9.04189C16.9461 8.90052 16.6748 8.85408 16.4161 8.91278Z" fill="#9676B5"/>
<path d="M24.2177 7.14197C24.0923 7.1713 23.9738 7.22466 23.8688 7.29909C24.0647 7.33108 24.2466 7.4208 24.3912 7.55679C24.5357 7.69277 24.6365 7.86881 24.6804 8.06237C24.7243 8.25594 24.7095 8.45821 24.6378 8.64329C24.5661 8.82837 24.4407 8.98783 24.2778 9.10125C24.4047 9.12304 24.5346 9.12002 24.6604 9.09236C24.919 9.03365 25.1437 8.87461 25.2851 8.65021C25.4265 8.42582 25.4729 8.15445 25.4142 7.89581C25.3555 7.63718 25.1965 7.41245 24.9721 7.27108C24.7477 7.12971 24.4763 7.08326 24.2177 7.14197Z" fill="#2B8EC6"/>
<path d="M30.3319 16.0085C30.2066 16.0378 30.0881 16.0912 29.9831 16.1656C30.179 16.1976 30.3609 16.2873 30.5054 16.4233C30.65 16.5593 30.7507 16.7353 30.7947 16.9289C30.8386 17.1225 30.8238 17.3247 30.7521 17.5098C30.6803 17.6949 30.555 17.8543 30.3921 17.9678C30.519 17.9896 30.6489 17.9865 30.7746 17.9589C31.0333 17.9002 31.258 17.7411 31.3994 17.5167C31.5408 17.2923 31.5872 17.021 31.5285 16.7623C31.4698 16.5037 31.3107 16.279 31.0863 16.1376C30.8619 15.9962 30.5906 15.9498 30.3319 16.0085Z" fill="#F7B546"/>
<path d="M8.78785 25.0003C8.66249 25.0296 8.54402 25.083 8.43897 25.1574C8.63487 25.1894 8.81675 25.2791 8.96134 25.4151C9.10593 25.5511 9.20665 25.7271 9.25058 25.9207C9.29452 26.1143 9.27967 26.3165 9.20796 26.5016C9.13624 26.6867 9.01092 26.8462 8.84803 26.9596C8.97491 26.9814 9.10481 26.9784 9.23055 26.9507C9.48918 26.892 9.71391 26.7329 9.85528 26.5086C9.99666 26.2842 10.0431 26.0128 9.98439 25.7542C9.92569 25.4955 9.76664 25.2708 9.54225 25.1294C9.31785 24.988 9.04649 24.9416 8.78785 25.0003Z" fill="#E13340"/>
<path d="M30.0625 28.3749C30.6011 28.2527 30.9386 27.717 30.8164 27.1784C30.6941 26.6398 30.1584 26.3023 29.6198 26.4245C29.0813 26.5468 28.7438 27.0825 28.866 27.6211C28.9883 28.1597 29.524 28.4972 30.0625 28.3749Z" fill="#F04C4D"/>
<path d="M29.6198 26.4245C29.4945 26.4538 29.376 26.5072 29.271 26.5816C29.4669 26.6136 29.6488 26.7033 29.7933 26.8393C29.9379 26.9753 30.0386 27.1513 30.0826 27.3449C30.1265 27.5385 30.1117 27.7407 30.04 27.9258C29.9682 28.1109 29.8429 28.2704 29.68 28.3838C29.8069 28.4056 29.9368 28.4025 30.0625 28.3749C30.3212 28.3162 30.5459 28.1571 30.6873 27.9327C30.8287 27.7083 30.8751 27.437 30.8164 27.1783C30.7577 26.9197 30.5986 26.695 30.3742 26.5536C30.1499 26.4122 29.8785 26.3658 29.6198 26.4245Z" fill="#E13340"/>
<path d="M31.4358 23.4877C31.3199 23.5138 31.1985 23.4978 31.0934 23.4426C30.9882 23.3874 30.9061 23.2965 30.8619 23.1863C30.7392 22.8803 30.5884 22.5863 30.4113 22.3082C30.3407 22.1959 30.3176 22.0601 30.347 21.9307C30.3765 21.8013 30.4562 21.6889 30.5685 21.6183C30.6809 21.5477 30.8167 21.5245 30.946 21.554C31.0754 21.5835 31.1878 21.6632 31.2584 21.7755C31.4656 22.1054 31.6436 22.4527 31.7904 22.8135C31.8172 22.8807 31.8291 22.953 31.8254 23.0253C31.8216 23.0976 31.8022 23.1682 31.7685 23.2323C31.7348 23.2964 31.6876 23.3524 31.6302 23.3965C31.5727 23.4406 31.5064 23.4717 31.4358 23.4877Z" fill="#F04C4D"/>
<path d="M14.1792 12.5389C14.0595 12.5663 13.9338 12.5484 13.8264 12.4887C13.666 12.4001 13.5015 12.319 13.3334 12.2458C13.2156 12.1903 13.1241 12.091 13.0784 11.969C13.0327 11.8471 13.0364 11.7121 13.0886 11.5928C13.1409 11.4735 13.2377 11.3794 13.3583 11.3303C13.479 11.2813 13.614 11.2813 13.7347 11.3303C13.9312 11.4164 14.1236 11.5117 14.3112 11.6158C14.3991 11.6651 14.4701 11.74 14.5148 11.8304C14.5594 11.9208 14.5757 12.0227 14.5614 12.1225C14.5471 12.2224 14.503 12.3156 14.4348 12.3899C14.3666 12.4642 14.2775 12.5161 14.1792 12.5389Z" fill="#499ED7"/>
<path d="M20.4933 18.7708C20.3978 18.7927 20.298 18.786 20.2063 18.7517C20.1145 18.7173 20.0349 18.6568 19.9772 18.5776C19.9196 18.4984 19.8865 18.404 19.8821 18.3061C19.8776 18.2082 19.902 18.1112 19.9523 18.0271C20.9418 16.3745 21.2542 14.4033 20.8242 12.5256C20.5734 11.4207 20.0652 10.3702 19.3564 9.48818C19.312 9.43744 19.2783 9.37825 19.2574 9.31416C19.2365 9.25007 19.2287 9.1824 19.2346 9.11524C19.2405 9.04807 19.2599 8.98279 19.2917 8.92333C19.3234 8.86386 19.3669 8.81143 19.4195 8.76919C19.472 8.72695 19.5326 8.69578 19.5975 8.67755C19.6624 8.65931 19.7303 8.6544 19.7972 8.66309C19.864 8.67179 19.9284 8.69392 19.9865 8.72815C20.0446 8.76238 20.0952 8.808 20.1352 8.86228C20.9429 9.86947 21.5116 11.0467 21.7986 12.3055C22.2858 14.4333 21.9316 16.6672 20.8101 18.5399C20.776 18.5982 20.7303 18.6487 20.6758 18.6884C20.6213 18.7281 20.5592 18.7562 20.4933 18.7708Z" fill="#92CA62"/>
<path d="M11.9139 20.7017C12.1832 20.6406 12.3519 20.3728 12.2908 20.1035C12.2297 19.8342 11.9618 19.6654 11.6926 19.7265C11.4233 19.7877 11.2545 20.0555 11.3156 20.3248C11.3768 20.5941 11.6446 20.7629 11.9139 20.7017Z" fill="#92CA62"/>
</svg>
