<svg width="1220" height="141" viewBox="0 0 1220 141" fill="none" xmlns="http://www.w3.org/2000/svg">
<mask id="path-1-outside-1_1_13375" maskUnits="userSpaceOnUse" x="0" y="0" width="1220" height="141" fill="black">
<rect fill="white" width="1220" height="141"/>
<path d="M109.183 6.34346V86.8785C109.183 117.645 89.5961 139 55.6821 139C21.224 139 2 117.645 2 86.8785V6.34346H29.5665V87.4214C29.5665 103.528 37.3649 114.387 55.6821 114.387C73.818 114.387 81.6164 103.528 81.6164 87.4214V6.34346H109.183Z"/>
<path d="M211.537 105.338C211.537 125.608 196.122 138.095 168.555 138.095C140.989 138.095 125.573 124.884 123.578 103.347H147.699C147.88 113.301 156.404 119.635 168.918 119.635C178.711 119.635 186.147 116.559 186.147 109.682C186.147 103.528 182.157 100.995 172.908 99.1849L155.497 95.9273C138.087 92.8507 127.568 83.2589 127.568 68.2378C127.568 50.321 142.984 37.8336 167.104 37.8336C191.406 37.8336 208.091 50.683 209.905 71.4954H185.784C184.877 62.0845 177.804 56.2933 167.104 56.2933C157.855 56.2933 151.689 59.7318 151.689 65.8851C151.689 71.6764 155.679 74.0291 164.384 75.6579L183.064 79.0964C201.925 82.716 211.537 91.4029 211.537 105.338Z"/>
<path d="M267.196 137.914C238.178 137.914 218.773 117.826 218.773 87.6024C218.773 58.8269 238.904 37.8336 266.833 37.8336C297.483 37.8336 317.795 62.6275 313.261 94.1176H244.526C246.158 109.863 253.775 118.55 266.652 118.55C277.714 118.55 285.15 113.12 288.052 103.528H313.079C307.639 125.427 290.772 137.914 267.196 137.914ZM266.289 56.2933C254.501 56.2933 247.065 63.8943 244.889 78.1915H286.601C285.876 64.7992 278.259 56.2933 266.289 56.2933Z"/>
<path d="M461.809 136.285L437.507 45.4346L413.205 136.285H385.276L351.906 6.34346H378.747L399.784 94.4795L423.724 6.34346H451.834L475.048 94.8415L496.267 6.34346H523.289L489.738 136.285H461.809Z"/>
<path d="M583.444 136.285V124.341C577.096 133.39 567.484 138.095 554.245 138.095C534.114 138.095 520.694 126.332 520.694 108.234C520.694 89.4122 535.928 79.2774 564.22 79.2774C569.661 79.2774 574.376 79.6394 580.361 80.3633V74.572C580.361 63.7133 574.195 57.3791 563.676 57.3791C552.794 57.3791 546.265 63.7133 545.358 74.572H522.689C524.14 52.3118 540.28 37.8336 563.676 37.8336C589.066 37.8336 603.937 51.7688 603.937 75.4769V136.285H583.444ZM544.452 107.51C544.452 115.654 550.255 120.721 559.686 120.721C572.562 120.721 580.361 113.663 580.361 102.443V95.5654C574.376 94.6605 570.205 94.2985 565.852 94.2985C551.525 94.2985 544.452 98.823 544.452 107.51Z"/>
<path d="M705.902 39.6433L670.355 136.285H642.789L607.061 39.6433H634.265L657.298 107.691L680.512 39.6433H705.902Z"/>
<path d="M752.046 137.914C723.029 137.914 703.623 117.826 703.623 87.6024C703.623 58.8269 723.754 37.8336 751.683 37.8336C782.333 37.8336 802.645 62.6275 798.111 94.1176H729.376C731.009 109.863 738.626 118.55 751.502 118.55C762.565 118.55 770.001 113.12 772.902 103.528H797.93C792.489 125.427 775.623 137.914 752.046 137.914ZM751.139 56.2933C739.351 56.2933 731.915 63.8943 729.739 78.1915H771.451C770.726 64.7992 763.109 56.2933 751.139 56.2933Z"/>
<path d="M850.403 138.095C822.474 138.095 803.25 117.464 803.25 87.9643C803.25 59.0079 823.2 37.8336 850.403 37.8336C875.612 37.8336 894.292 54.8454 897.375 80.9062H870.897C869.627 68.0568 861.829 60.0938 850.403 60.0938C837.346 60.0938 829.003 70.7715 829.003 87.9643C829.003 105.338 837.164 115.835 850.403 115.835C862.01 115.835 869.446 108.234 870.897 95.0225H897.375C894.474 121.626 876.338 138.095 850.403 138.095Z"/>
<path d="M935.142 83.6209V136.285H909.933V6.34346H935.142V52.3118C941.852 43.4439 950.195 37.8336 962.89 37.8336C982.295 37.8336 995.715 50.502 995.715 73.8481V136.285H970.688V82.354C970.688 68.0568 965.066 60.0938 953.64 60.0938C943.666 60.0938 935.142 68.0568 935.142 83.6209Z"/>
<path d="M1043.01 17.2021C1043.01 25.7081 1036.12 32.0423 1026.14 32.0423C1016.35 32.0423 1009.46 25.7081 1009.46 17.2021C1009.46 8.33422 1016.35 2 1026.14 2C1036.12 2 1043.01 8.33422 1043.01 17.2021ZM1039.02 136.285H1013.81V39.6433H1039.02V136.285Z"/>
<path d="M1099.9 137.914C1070.88 137.914 1051.48 117.826 1051.48 87.6024C1051.48 58.8269 1071.61 37.8336 1099.54 37.8336C1130.19 37.8336 1150.5 62.6275 1145.97 94.1176H1077.23C1078.86 109.863 1086.48 118.55 1099.36 118.55C1110.42 118.55 1117.85 113.12 1120.76 103.528H1145.78C1140.34 125.427 1123.48 137.914 1099.9 137.914ZM1098.99 56.2933C1087.21 56.2933 1079.77 63.8943 1077.59 78.1915H1119.31C1118.58 64.7992 1110.96 56.2933 1098.99 56.2933Z"/>
<path d="M1192.79 136.285H1167.76V61.1797H1148.18V39.6433H1167.76V34.395C1167.76 15.2114 1178.1 4.35271 1198.23 4.35271C1204.4 4.35271 1209.66 5.43857 1213.83 7.24835V27.1559C1211.11 26.07 1207.48 25.5271 1204.22 25.5271C1197.33 25.5271 1192.79 28.2417 1192.79 34.9379V39.6433H1218V61.1797H1192.79V136.285Z"/>
</mask>
<path d="M109.183 6.34346V86.8785C109.183 117.645 89.5961 139 55.6821 139C21.224 139 2 117.645 2 86.8785V6.34346H29.5665V87.4214C29.5665 103.528 37.3649 114.387 55.6821 114.387C73.818 114.387 81.6164 103.528 81.6164 87.4214V6.34346H109.183Z" fill="#1A1A1A"/>
<path d="M211.537 105.338C211.537 125.608 196.122 138.095 168.555 138.095C140.989 138.095 125.573 124.884 123.578 103.347H147.699C147.88 113.301 156.404 119.635 168.918 119.635C178.711 119.635 186.147 116.559 186.147 109.682C186.147 103.528 182.157 100.995 172.908 99.1849L155.497 95.9273C138.087 92.8507 127.568 83.2589 127.568 68.2378C127.568 50.321 142.984 37.8336 167.104 37.8336C191.406 37.8336 208.091 50.683 209.905 71.4954H185.784C184.877 62.0845 177.804 56.2933 167.104 56.2933C157.855 56.2933 151.689 59.7318 151.689 65.8851C151.689 71.6764 155.679 74.0291 164.384 75.6579L183.064 79.0964C201.925 82.716 211.537 91.4029 211.537 105.338Z" fill="#1A1A1A"/>
<path d="M267.196 137.914C238.178 137.914 218.773 117.826 218.773 87.6024C218.773 58.8269 238.904 37.8336 266.833 37.8336C297.483 37.8336 317.795 62.6275 313.261 94.1176H244.526C246.158 109.863 253.775 118.55 266.652 118.55C277.714 118.55 285.15 113.12 288.052 103.528H313.079C307.639 125.427 290.772 137.914 267.196 137.914ZM266.289 56.2933C254.501 56.2933 247.065 63.8943 244.889 78.1915H286.601C285.876 64.7992 278.259 56.2933 266.289 56.2933Z" fill="#1A1A1A"/>
<path d="M461.809 136.285L437.507 45.4346L413.205 136.285H385.276L351.906 6.34346H378.747L399.784 94.4795L423.724 6.34346H451.834L475.048 94.8415L496.267 6.34346H523.289L489.738 136.285H461.809Z" fill="#1A1A1A"/>
<path d="M583.444 136.285V124.341C577.096 133.39 567.484 138.095 554.245 138.095C534.114 138.095 520.694 126.332 520.694 108.234C520.694 89.4122 535.928 79.2774 564.22 79.2774C569.661 79.2774 574.376 79.6394 580.361 80.3633V74.572C580.361 63.7133 574.195 57.3791 563.676 57.3791C552.794 57.3791 546.265 63.7133 545.358 74.572H522.689C524.14 52.3118 540.28 37.8336 563.676 37.8336C589.066 37.8336 603.937 51.7688 603.937 75.4769V136.285H583.444ZM544.452 107.51C544.452 115.654 550.255 120.721 559.686 120.721C572.562 120.721 580.361 113.663 580.361 102.443V95.5654C574.376 94.6605 570.205 94.2985 565.852 94.2985C551.525 94.2985 544.452 98.823 544.452 107.51Z" fill="#1A1A1A"/>
<path d="M705.902 39.6433L670.355 136.285H642.789L607.061 39.6433H634.265L657.298 107.691L680.512 39.6433H705.902Z" fill="#1A1A1A"/>
<path d="M752.046 137.914C723.029 137.914 703.623 117.826 703.623 87.6024C703.623 58.8269 723.754 37.8336 751.683 37.8336C782.333 37.8336 802.645 62.6275 798.111 94.1176H729.376C731.009 109.863 738.626 118.55 751.502 118.55C762.565 118.55 770.001 113.12 772.902 103.528H797.93C792.489 125.427 775.623 137.914 752.046 137.914ZM751.139 56.2933C739.351 56.2933 731.915 63.8943 729.739 78.1915H771.451C770.726 64.7992 763.109 56.2933 751.139 56.2933Z" fill="#1A1A1A"/>
<path d="M850.403 138.095C822.474 138.095 803.25 117.464 803.25 87.9643C803.25 59.0079 823.2 37.8336 850.403 37.8336C875.612 37.8336 894.292 54.8454 897.375 80.9062H870.897C869.627 68.0568 861.829 60.0938 850.403 60.0938C837.346 60.0938 829.003 70.7715 829.003 87.9643C829.003 105.338 837.164 115.835 850.403 115.835C862.01 115.835 869.446 108.234 870.897 95.0225H897.375C894.474 121.626 876.338 138.095 850.403 138.095Z" fill="#1A1A1A"/>
<path d="M935.142 83.6209V136.285H909.933V6.34346H935.142V52.3118C941.852 43.4439 950.195 37.8336 962.89 37.8336C982.295 37.8336 995.715 50.502 995.715 73.8481V136.285H970.688V82.354C970.688 68.0568 965.066 60.0938 953.64 60.0938C943.666 60.0938 935.142 68.0568 935.142 83.6209Z" fill="#1A1A1A"/>
<path d="M1043.01 17.2021C1043.01 25.7081 1036.12 32.0423 1026.14 32.0423C1016.35 32.0423 1009.46 25.7081 1009.46 17.2021C1009.46 8.33422 1016.35 2 1026.14 2C1036.12 2 1043.01 8.33422 1043.01 17.2021ZM1039.02 136.285H1013.81V39.6433H1039.02V136.285Z" fill="#1A1A1A"/>
<path d="M1099.9 137.914C1070.88 137.914 1051.48 117.826 1051.48 87.6024C1051.48 58.8269 1071.61 37.8336 1099.54 37.8336C1130.19 37.8336 1150.5 62.6275 1145.97 94.1176H1077.23C1078.86 109.863 1086.48 118.55 1099.36 118.55C1110.42 118.55 1117.85 113.12 1120.76 103.528H1145.78C1140.34 125.427 1123.48 137.914 1099.9 137.914ZM1098.99 56.2933C1087.21 56.2933 1079.77 63.8943 1077.59 78.1915H1119.31C1118.58 64.7992 1110.96 56.2933 1098.99 56.2933Z" fill="#1A1A1A"/>
<path d="M1192.79 136.285H1167.76V61.1797H1148.18V39.6433H1167.76V34.395C1167.76 15.2114 1178.1 4.35271 1198.23 4.35271C1204.4 4.35271 1209.66 5.43857 1213.83 7.24835V27.1559C1211.11 26.07 1207.48 25.5271 1204.22 25.5271C1197.33 25.5271 1192.79 28.2417 1192.79 34.9379V39.6433H1218V61.1797H1192.79V136.285Z" fill="#1A1A1A"/>
<path d="M109.183 6.34346V86.8785C109.183 117.645 89.5961 139 55.6821 139C21.224 139 2 117.645 2 86.8785V6.34346H29.5665V87.4214C29.5665 103.528 37.3649 114.387 55.6821 114.387C73.818 114.387 81.6164 103.528 81.6164 87.4214V6.34346H109.183Z" stroke="#080808" stroke-width="4" mask="url(#path-1-outside-1_1_13375)"/>
<path d="M211.537 105.338C211.537 125.608 196.122 138.095 168.555 138.095C140.989 138.095 125.573 124.884 123.578 103.347H147.699C147.88 113.301 156.404 119.635 168.918 119.635C178.711 119.635 186.147 116.559 186.147 109.682C186.147 103.528 182.157 100.995 172.908 99.1849L155.497 95.9273C138.087 92.8507 127.568 83.2589 127.568 68.2378C127.568 50.321 142.984 37.8336 167.104 37.8336C191.406 37.8336 208.091 50.683 209.905 71.4954H185.784C184.877 62.0845 177.804 56.2933 167.104 56.2933C157.855 56.2933 151.689 59.7318 151.689 65.8851C151.689 71.6764 155.679 74.0291 164.384 75.6579L183.064 79.0964C201.925 82.716 211.537 91.4029 211.537 105.338Z" stroke="#080808" stroke-width="4" mask="url(#path-1-outside-1_1_13375)"/>
<path d="M267.196 137.914C238.178 137.914 218.773 117.826 218.773 87.6024C218.773 58.8269 238.904 37.8336 266.833 37.8336C297.483 37.8336 317.795 62.6275 313.261 94.1176H244.526C246.158 109.863 253.775 118.55 266.652 118.55C277.714 118.55 285.15 113.12 288.052 103.528H313.079C307.639 125.427 290.772 137.914 267.196 137.914ZM266.289 56.2933C254.501 56.2933 247.065 63.8943 244.889 78.1915H286.601C285.876 64.7992 278.259 56.2933 266.289 56.2933Z" stroke="#080808" stroke-width="4" mask="url(#path-1-outside-1_1_13375)"/>
<path d="M461.809 136.285L437.507 45.4346L413.205 136.285H385.276L351.906 6.34346H378.747L399.784 94.4795L423.724 6.34346H451.834L475.048 94.8415L496.267 6.34346H523.289L489.738 136.285H461.809Z" stroke="#080808" stroke-width="4" mask="url(#path-1-outside-1_1_13375)"/>
<path d="M583.444 136.285V124.341C577.096 133.39 567.484 138.095 554.245 138.095C534.114 138.095 520.694 126.332 520.694 108.234C520.694 89.4122 535.928 79.2774 564.22 79.2774C569.661 79.2774 574.376 79.6394 580.361 80.3633V74.572C580.361 63.7133 574.195 57.3791 563.676 57.3791C552.794 57.3791 546.265 63.7133 545.358 74.572H522.689C524.14 52.3118 540.28 37.8336 563.676 37.8336C589.066 37.8336 603.937 51.7688 603.937 75.4769V136.285H583.444ZM544.452 107.51C544.452 115.654 550.255 120.721 559.686 120.721C572.562 120.721 580.361 113.663 580.361 102.443V95.5654C574.376 94.6605 570.205 94.2985 565.852 94.2985C551.525 94.2985 544.452 98.823 544.452 107.51Z" stroke="#080808" stroke-width="4" mask="url(#path-1-outside-1_1_13375)"/>
<path d="M705.902 39.6433L670.355 136.285H642.789L607.061 39.6433H634.265L657.298 107.691L680.512 39.6433H705.902Z" stroke="#080808" stroke-width="4" mask="url(#path-1-outside-1_1_13375)"/>
<path d="M752.046 137.914C723.029 137.914 703.623 117.826 703.623 87.6024C703.623 58.8269 723.754 37.8336 751.683 37.8336C782.333 37.8336 802.645 62.6275 798.111 94.1176H729.376C731.009 109.863 738.626 118.55 751.502 118.55C762.565 118.55 770.001 113.12 772.902 103.528H797.93C792.489 125.427 775.623 137.914 752.046 137.914ZM751.139 56.2933C739.351 56.2933 731.915 63.8943 729.739 78.1915H771.451C770.726 64.7992 763.109 56.2933 751.139 56.2933Z" stroke="#080808" stroke-width="4" mask="url(#path-1-outside-1_1_13375)"/>
<path d="M850.403 138.095C822.474 138.095 803.25 117.464 803.25 87.9643C803.25 59.0079 823.2 37.8336 850.403 37.8336C875.612 37.8336 894.292 54.8454 897.375 80.9062H870.897C869.627 68.0568 861.829 60.0938 850.403 60.0938C837.346 60.0938 829.003 70.7715 829.003 87.9643C829.003 105.338 837.164 115.835 850.403 115.835C862.01 115.835 869.446 108.234 870.897 95.0225H897.375C894.474 121.626 876.338 138.095 850.403 138.095Z" stroke="#080808" stroke-width="4" mask="url(#path-1-outside-1_1_13375)"/>
<path d="M935.142 83.6209V136.285H909.933V6.34346H935.142V52.3118C941.852 43.4439 950.195 37.8336 962.89 37.8336C982.295 37.8336 995.715 50.502 995.715 73.8481V136.285H970.688V82.354C970.688 68.0568 965.066 60.0938 953.64 60.0938C943.666 60.0938 935.142 68.0568 935.142 83.6209Z" stroke="#080808" stroke-width="4" mask="url(#path-1-outside-1_1_13375)"/>
<path d="M1043.01 17.2021C1043.01 25.7081 1036.12 32.0423 1026.14 32.0423C1016.35 32.0423 1009.46 25.7081 1009.46 17.2021C1009.46 8.33422 1016.35 2 1026.14 2C1036.12 2 1043.01 8.33422 1043.01 17.2021ZM1039.02 136.285H1013.81V39.6433H1039.02V136.285Z" stroke="#080808" stroke-width="4" mask="url(#path-1-outside-1_1_13375)"/>
<path d="M1099.9 137.914C1070.88 137.914 1051.48 117.826 1051.48 87.6024C1051.48 58.8269 1071.61 37.8336 1099.54 37.8336C1130.19 37.8336 1150.5 62.6275 1145.97 94.1176H1077.23C1078.86 109.863 1086.48 118.55 1099.36 118.55C1110.42 118.55 1117.85 113.12 1120.76 103.528H1145.78C1140.34 125.427 1123.48 137.914 1099.9 137.914ZM1098.99 56.2933C1087.21 56.2933 1079.77 63.8943 1077.59 78.1915H1119.31C1118.58 64.7992 1110.96 56.2933 1098.99 56.2933Z" stroke="#080808" stroke-width="4" mask="url(#path-1-outside-1_1_13375)"/>
<path d="M1192.79 136.285H1167.76V61.1797H1148.18V39.6433H1167.76V34.395C1167.76 15.2114 1178.1 4.35271 1198.23 4.35271C1204.4 4.35271 1209.66 5.43857 1213.83 7.24835V27.1559C1211.11 26.07 1207.48 25.5271 1204.22 25.5271C1197.33 25.5271 1192.79 28.2417 1192.79 34.9379V39.6433H1218V61.1797H1192.79V136.285Z" stroke="#080808" stroke-width="4" mask="url(#path-1-outside-1_1_13375)"/>
</svg>
