<svg width="110" height="60" viewBox="0 0 110 60" fill="none" xmlns="http://www.w3.org/2000/svg">
<g filter="url(#filter0_d_1_12568)">
<path d="M105.789 9.14819C99.429 19.6648 88.5126 24.1325 79.6154 25.512C75.1032 26.179 70.5308 26.364 65.9781 26.0638C61.4694 25.7578 56.9986 25.0474 52.6215 23.9414C48.3672 22.9439 44.3289 21.7235 40.4202 20.6623C36.5115 19.6011 32.7755 18.7203 28.6077 17.797C24.4398 16.8738 12.6812 14.3693 4 15.1228C11.6231 8.21431 25.336 8.44779 29.7522 8.53268C32.0197 8.53268 34.0712 8.67063 36.3927 8.85103C38.7142 9.03144 40.9061 9.4241 43.098 9.82736C47.4171 10.6657 51.5957 11.7375 55.5908 12.7775C59.5859 13.8175 63.3867 14.7089 67.2738 15.3562C71.2033 16.0229 75.1692 16.4623 79.1511 16.6722C89.8839 17.2983 100.39 13.8493 105.789 9.14819Z" fill="black"/>
<path d="M104.536 3.04608C104.109 3.48361 103.654 3.89472 103.175 4.27708C102.296 4.86365 101.38 5.3953 100.433 5.86889C98.6124 6.80306 96.7163 7.5875 94.7641 8.21417C90.8585 9.30607 86.7583 9.55227 82.7464 8.93578C74.6483 7.82151 66.6796 5.12605 58.3007 3.22649C49.9218 1.32692 41.1974 -0.286114 32.2786 0.0428607C23.4124 0.153535 14.76 2.733 7.32538 7.48193C11.4001 6.34388 15.5701 5.5661 19.7858 5.15788C21.8481 4.94597 23.921 4.8503 25.9944 4.87135C27.0202 4.87135 28.0459 4.87135 29.0825 4.87135L32.1598 5.07298C40.366 5.80522 48.4425 7.69417 56.6919 9.63618C64.9412 11.5782 73.5253 13.4778 82.5413 13.2231C84.7982 13.1625 87.0471 12.9319 89.2682 12.5333C91.5036 12.104 93.6787 11.4128 95.7467 10.4745C96.2434 10.2305 96.7725 10.0182 97.2584 9.75292L98.6836 8.88274C99.63 8.30369 100.497 7.60827 101.264 6.81336C102.042 6.03868 102.668 5.13667 103.424 4.3726C103.802 3.90566 104.223 3.47056 104.622 3.02486L104.536 3.04608Z" fill="black"/>
<path d="M14.0484 47.25L10.9856 35.7074H12.5524L14.3082 43.2739C14.4972 44.0665 14.6599 44.8538 14.7964 45.6359C15.0903 44.4024 15.2635 43.6912 15.316 43.5022L17.5127 35.7074H19.3551L21.0086 41.5496C21.4232 42.9983 21.7224 44.3604 21.9062 45.6359C22.0531 44.9063 22.2447 44.0691 22.4809 43.1243L24.2918 35.7074H25.8272L22.662 47.25H21.1897L18.7567 38.4553C18.552 37.7204 18.4313 37.269 18.3946 37.101C18.2738 37.6312 18.161 38.0826 18.056 38.4553L15.6073 47.25H14.0484ZM25.3941 47.25L29.8269 35.7074H31.4725L36.1966 47.25H34.4565L33.1102 43.7542H28.2837L27.0161 47.25H25.3941ZM28.7246 42.5101H32.6377L31.4331 39.3135C31.0657 38.3424 30.7927 37.5446 30.6143 36.92C30.4673 37.6601 30.2599 38.3949 29.9922 39.1245L28.7246 42.5101ZM39.5192 47.25L35.047 35.7074H36.7005L39.7003 44.0927C39.9417 44.7646 40.1438 45.3945 40.3065 45.9824C40.485 45.3525 40.6923 44.7226 40.9286 44.0927L44.0465 35.7074H45.6054L41.086 47.25H39.5192ZM47.0069 47.25V35.7074H55.3528V37.0696H48.5344V40.6048H54.9198V41.959H48.5344V45.8879H55.6205V47.25H47.0069ZM65.9663 43.203L67.4938 43.5888C67.1736 44.8433 66.5962 45.8013 65.7616 46.4626C64.9323 47.1188 63.9166 47.4468 62.7146 47.4468C61.4705 47.4468 60.4575 47.1949 59.6754 46.691C58.8985 46.1818 58.3054 45.447 57.896 44.4864C57.4918 43.5258 57.2897 42.4944 57.2897 41.3921C57.2897 40.1901 57.518 39.1429 57.9747 38.2506C58.4366 37.353 59.0901 36.6733 59.9352 36.2113C60.7855 35.7442 61.7199 35.5106 62.7382 35.5106C63.893 35.5106 64.864 35.8045 65.6514 36.3924C66.4387 36.9803 66.9872 37.807 67.2969 38.8726L65.7931 39.2269C65.5254 38.3871 65.137 37.7755 64.6278 37.3924C64.1187 37.0092 63.4783 36.8176 62.7067 36.8176C61.8196 36.8176 61.0769 37.0302 60.4785 37.4554C59.8853 37.8805 59.468 38.4527 59.2266 39.1718C58.9851 39.8856 58.8644 40.6231 58.8644 41.3842C58.8644 42.3658 59.0061 43.224 59.2896 43.9589C59.5783 44.6885 60.0244 45.2344 60.6281 45.5966C61.2317 45.9587 61.8852 46.1398 62.5886 46.1398C63.4442 46.1398 64.1685 45.8931 64.7617 45.3997C65.3548 44.9063 65.7564 44.1741 65.9663 43.203ZM69.4307 47.25V35.7074H70.9581V40.4473H76.9577V35.7074H78.4852V47.25H76.9577V41.8094H70.9581V47.25H69.4307ZM81.296 47.25V35.7074H82.8235V47.25H81.296ZM85.5556 47.25V35.7074H93.9015V37.0696H87.0831V40.6048H93.4685V41.959H87.0831V45.8879H94.1692V47.25H85.5556ZM96.3581 47.25V35.7074H104.145V37.0696H97.8855V40.6441H103.303V42.0062H97.8855V47.25H96.3581Z" fill="black"/>
</g>
<defs>
<filter id="filter0_d_1_12568" x="0" y="0" width="109.789" height="59.25" filterUnits="userSpaceOnUse" color-interpolation-filters="sRGB">
<feFlood flood-opacity="0" result="BackgroundImageFix"/>
<feColorMatrix in="SourceAlpha" type="matrix" values="0 0 0 0 0 0 0 0 0 0 0 0 0 0 0 0 0 0 127 0" result="hardAlpha"/>
<feOffset dy="4"/>
<feGaussianBlur stdDeviation="2"/>
<feComposite in2="hardAlpha" operator="out"/>
<feColorMatrix type="matrix" values="0 0 0 0 0 0 0 0 0 0 0 0 0 0 0 0 0 0 0.25 0"/>
<feBlend mode="normal" in2="BackgroundImageFix" result="effect1_dropShadow_1_12568"/>
<feBlend mode="normal" in="SourceGraphic" in2="effect1_dropShadow_1_12568" result="shape"/>
</filter>
</defs>
</svg>
